<svg width="46" height="46" viewBox="0 0 46 46" fill="none" xmlns="http://www.w3.org/2000/svg">
<path d="M23 0.25C18.5005 0.25 14.102 1.58426 10.3608 4.08407C6.61957 6.58387 3.70364 10.1369 1.98175 14.294C0.259857 18.451 -0.190669 23.0252 0.687145 27.4383C1.56496 31.8514 3.73169 35.905 6.91333 39.0867C10.095 42.2683 14.1486 44.4351 18.5617 45.3129C22.9748 46.1907 27.549 45.7402 31.7061 44.0183C35.8631 42.2964 39.4161 39.3804 41.9159 35.6392C44.4157 31.898 45.75 27.4995 45.75 23C45.7436 16.9683 43.3447 11.1854 39.0797 6.92036C34.8146 2.65528 29.0317 0.25637 23 0.25ZM24.75 42.1691V28.25H30C30.4641 28.25 30.9093 28.0656 31.2374 27.7374C31.5656 27.4093 31.75 26.9641 31.75 26.5C31.75 26.0359 31.5656 25.5907 31.2374 25.2626C30.9093 24.9344 30.4641 24.75 30 24.75H24.75V19.5C24.75 18.5717 25.1188 17.6815 25.7751 17.0251C26.4315 16.3687 27.3218 16 28.25 16H31.75C32.2141 16 32.6593 15.8156 32.9874 15.4874C33.3156 15.1592 33.5 14.7141 33.5 14.25C33.5 13.7859 33.3156 13.3408 32.9874 13.0126C32.6593 12.6844 32.2141 12.5 31.75 12.5H28.25C26.3935 12.5 24.613 13.2375 23.3003 14.5503C21.9875 15.863 21.25 17.6435 21.25 19.5V24.75H16C15.5359 24.75 15.0908 24.9344 14.7626 25.2626C14.4344 25.5907 14.25 26.0359 14.25 26.5C14.25 26.9641 14.4344 27.4093 14.7626 27.7374C15.0908 28.0656 15.5359 28.25 16 28.25H21.25V42.1691C16.3167 41.7187 11.747 39.3839 8.49128 35.6502C5.23557 31.9166 3.54454 27.0715 3.76995 22.1229C3.99535 17.1742 6.11984 12.503 9.70149 9.08073C13.2831 5.65851 18.0462 3.74877 23 3.74877C27.9538 3.74877 32.7169 5.65851 36.2985 9.08073C39.8802 12.503 42.0047 17.1742 42.2301 22.1229C42.4555 27.0715 40.7645 31.9166 37.5087 35.6502C34.253 39.3839 29.6833 41.7187 24.75 42.1691Z" fill="#676665"/>
</svg>
