<svg width="46" height="46" viewBox="0 0 46 46" fill="none" xmlns="http://www.w3.org/2000/svg">
<path d="M23 12.5C20.9233 12.5 18.8932 13.1158 17.1665 14.2696C15.4398 15.4233 14.094 17.0632 13.2993 18.9818C12.5045 20.9004 12.2966 23.0116 12.7018 25.0484C13.1069 27.0852 14.1069 28.9562 15.5754 30.4246C17.0438 31.8931 18.9148 32.8931 20.9516 33.2982C22.9884 33.7034 25.0996 33.4955 27.0182 32.7007C28.9368 31.906 30.5767 30.5602 31.7304 28.8335C32.8842 27.1068 33.5 25.0767 33.5 23C33.4971 20.2161 32.3899 17.5471 30.4214 15.5786C28.4529 13.6101 25.7839 12.5029 23 12.5ZM23 30C21.6155 30 20.2622 29.5895 19.111 28.8203C17.9599 28.0511 17.0627 26.9579 16.5328 25.6788C16.003 24.3997 15.8644 22.9922 16.1345 21.6344C16.4046 20.2765 17.0713 19.0292 18.0503 18.0503C19.0292 17.0713 20.2765 16.4046 21.6344 16.1345C22.9922 15.8644 24.3997 16.003 25.6788 16.5328C26.9579 17.0627 28.0511 17.9599 28.8203 19.111C29.5895 20.2622 30 21.6155 30 23C30 24.8565 29.2625 26.637 27.9497 27.9497C26.637 29.2625 24.8565 30 23 30ZM33.5 0.25H12.5C9.25216 0.253474 6.13835 1.54521 3.84178 3.84178C1.54521 6.13835 0.253474 9.25216 0.25 12.5V33.5C0.253474 36.7478 1.54521 39.8617 3.84178 42.1582C6.13835 44.4548 9.25216 45.7465 12.5 45.75H33.5C36.7478 45.7465 39.8617 44.4548 42.1582 42.1582C44.4548 39.8617 45.7465 36.7478 45.75 33.5V12.5C45.7465 9.25216 44.4548 6.13835 42.1582 3.84178C39.8617 1.54521 36.7478 0.253474 33.5 0.25ZM42.25 33.5C42.25 35.8206 41.3281 38.0462 39.6872 39.6872C38.0462 41.3281 35.8206 42.25 33.5 42.25H12.5C10.1794 42.25 7.95376 41.3281 6.31282 39.6872C4.67187 38.0462 3.75 35.8206 3.75 33.5V12.5C3.75 10.1794 4.67187 7.95376 6.31282 6.31282C7.95376 4.67187 10.1794 3.75 12.5 3.75H33.5C35.8206 3.75 38.0462 4.67187 39.6872 6.31282C41.3281 7.95376 42.25 10.1794 42.25 12.5V33.5ZM37 11.625C37 12.1442 36.846 12.6517 36.5576 13.0834C36.2692 13.515 35.8592 13.8515 35.3795 14.0502C34.8999 14.2489 34.3721 14.3008 33.8629 14.1996C33.3537 14.0983 32.886 13.8483 32.5188 13.4812C32.1517 13.114 31.9017 12.6463 31.8004 12.1371C31.6992 11.6279 31.7511 11.1001 31.9498 10.6205C32.1485 10.1408 32.485 9.73083 32.9166 9.44239C33.3483 9.15395 33.8558 9 34.375 9C35.0712 9 35.7389 9.27656 36.2312 9.76884C36.7234 10.2611 37 10.9288 37 11.625Z" fill="#676665"/>
</svg>
