<svg width="46" height="46" viewBox="0 0 46 46" fill="none" xmlns="http://www.w3.org/2000/svg">
<path d="M42.25 0.25H3.75C2.82174 0.25 1.9315 0.618749 1.27513 1.27513C0.618749 1.9315 0.25 2.82174 0.25 3.75V42.25C0.25 43.1783 0.618749 44.0685 1.27513 44.7249C1.9315 45.3812 2.82174 45.75 3.75 45.75H42.25C43.1783 45.75 44.0685 45.3812 44.7249 44.7249C45.3812 44.0685 45.75 43.1783 45.75 42.25V3.75C45.75 2.82174 45.3812 1.9315 44.7249 1.27513C44.0685 0.618749 43.1783 0.25 42.25 0.25ZM42.25 42.25H3.75V3.75H42.25V42.25ZM16 19.5V33.5C16 33.9641 15.8156 34.4092 15.4874 34.7374C15.1592 35.0656 14.7141 35.25 14.25 35.25C13.7859 35.25 13.3408 35.0656 13.0126 34.7374C12.6844 34.4092 12.5 33.9641 12.5 33.5V19.5C12.5 19.0359 12.6844 18.5908 13.0126 18.2626C13.3408 17.9344 13.7859 17.75 14.25 17.75C14.7141 17.75 15.1592 17.9344 15.4874 18.2626C15.8156 18.5908 16 19.0359 16 19.5ZM35.25 25.625V33.5C35.25 33.9641 35.0656 34.4092 34.7374 34.7374C34.4092 35.0656 33.9641 35.25 33.5 35.25C33.0359 35.25 32.5908 35.0656 32.2626 34.7374C31.9344 34.4092 31.75 33.9641 31.75 33.5V25.625C31.75 24.4647 31.2891 23.3519 30.4686 22.5314C29.6481 21.7109 28.5353 21.25 27.375 21.25C26.2147 21.25 25.1019 21.7109 24.2814 22.5314C23.4609 23.3519 23 24.4647 23 25.625V33.5C23 33.9641 22.8156 34.4092 22.4874 34.7374C22.1592 35.0656 21.7141 35.25 21.25 35.25C20.7859 35.25 20.3408 35.0656 20.0126 34.7374C19.6844 34.4092 19.5 33.9641 19.5 33.5V19.5C19.5022 19.0713 19.6616 18.6584 19.948 18.3395C20.2345 18.0206 20.628 17.8179 21.0539 17.7699C21.4799 17.7219 21.9087 17.8319 22.2589 18.079C22.6092 18.3261 22.8565 18.6932 22.9541 19.1106C24.1379 18.3075 25.5181 17.8421 26.9466 17.7643C28.375 17.6864 29.7976 17.9992 31.0617 18.6689C32.3258 19.3386 33.3836 20.34 34.1215 21.5655C34.8594 22.7911 35.2495 24.1945 35.25 25.625ZM16.875 13.375C16.875 13.8942 16.721 14.4017 16.4326 14.8334C16.1442 15.265 15.7342 15.6015 15.2545 15.8002C14.7749 15.9989 14.2471 16.0508 13.7379 15.9496C13.2287 15.8483 12.761 15.5983 12.3938 15.2312C12.0267 14.864 11.7767 14.3963 11.6754 13.8871C11.5742 13.3779 11.6261 12.8501 11.8248 12.3705C12.0235 11.8908 12.36 11.4808 12.7916 11.1924C13.2233 10.904 13.7308 10.75 14.25 10.75C14.9462 10.75 15.6139 11.0266 16.1062 11.5188C16.5984 12.0111 16.875 12.6788 16.875 13.375Z" fill="#676665"/>
</svg>
