<svg width="46" height="36" viewBox="0 0 46 36" fill="none" xmlns="http://www.w3.org/2000/svg">
<path d="M44 0.5H2C1.53587 0.5 1.09075 0.684375 0.762563 1.01256C0.434374 1.34075 0.25 1.78587 0.25 2.25V32C0.25 32.9283 0.618749 33.8185 1.27513 34.4749C1.9315 35.1312 2.82174 35.5 3.75 35.5H42.25C43.1783 35.5 44.0685 35.1312 44.7249 34.4749C45.3812 33.8185 45.75 32.9283 45.75 32V2.25C45.75 1.78587 45.5656 1.34075 45.2374 1.01256C44.9092 0.684375 44.4641 0.5 44 0.5ZM23 19.1266L6.49969 4H39.5003L23 19.1266ZM16.5928 18L3.75 29.7709V6.22906L16.5928 18ZM19.1828 20.3734L21.8078 22.7906C22.1307 23.087 22.553 23.2514 22.9912 23.2514C23.4295 23.2514 23.8518 23.087 24.1747 22.7906L26.7997 20.3734L39.4872 32H6.49969L19.1828 20.3734ZM29.4072 18L42.25 6.22688V29.7731L29.4072 18Z" fill="#676665"/>
</svg>
