<svg width="44" height="44" viewBox="0 0 44 44" fill="none" xmlns="http://www.w3.org/2000/svg">
<path d="M26.3091 3.29719C26.3685 3.07509 26.4711 2.86688 26.611 2.68445C26.7509 2.50201 26.9253 2.34893 27.1244 2.23395C27.3235 2.11897 27.5433 2.04435 27.7712 2.01434C27.9992 1.98433 28.2308 1.99953 28.4528 2.05906C31.697 2.90551 34.657 4.60147 37.0278 6.97227C39.3985 9.34306 41.0945 12.303 41.941 15.5472C42.0005 15.7692 42.0157 16.0009 41.9857 16.2288C41.9557 16.4567 41.881 16.6765 41.7661 16.8756C41.6511 17.0747 41.498 17.2492 41.3156 17.3891C41.1331 17.529 40.9249 17.6315 40.7028 17.6909C40.555 17.7298 40.4029 17.7496 40.25 17.75C39.8644 17.75 39.4896 17.6226 39.1838 17.3876C38.878 17.1527 38.6584 16.8233 38.5591 16.4506C37.8687 13.8023 36.4846 11.3859 34.5493 9.45067C32.6141 7.51542 30.1978 6.13129 27.5494 5.44094C27.3271 5.38177 27.1187 5.27936 26.936 5.13956C26.7533 4.99976 26.6 4.82531 26.4848 4.62621C26.3696 4.4271 26.2948 4.20724 26.2646 3.97919C26.2345 3.75114 26.2496 3.51939 26.3091 3.29719ZM25.7994 12.4409C28.816 13.2459 30.7541 15.1841 31.5591 18.2006C31.6584 18.5733 31.878 18.9027 32.1838 19.1376C32.4896 19.3726 32.8644 19.5 33.25 19.5C33.4029 19.4996 33.555 19.4798 33.7028 19.4409C33.9249 19.3815 34.1331 19.279 34.3156 19.1391C34.498 18.9992 34.6511 18.8247 34.7661 18.6256C34.881 18.4265 34.9557 18.2067 34.9857 17.9788C35.0157 17.7509 35.0005 17.5192 34.941 17.2972C33.821 13.1059 30.8941 10.1791 26.7028 9.05906C26.4808 8.99974 26.2492 8.98474 26.0214 9.01491C25.7935 9.04508 25.5738 9.11984 25.3749 9.23491C25.1759 9.34999 25.0015 9.50312 24.8618 9.68557C24.722 9.86803 24.6195 10.0762 24.5602 10.2983C24.5009 10.5203 24.4859 10.7519 24.516 10.9798C24.5462 11.2076 24.621 11.4273 24.736 11.6263C24.8511 11.8252 25.0042 11.9996 25.1867 12.1394C25.3691 12.2791 25.5773 12.3816 25.7994 12.4409ZM43.7238 33.2987C43.3337 36.2629 41.878 38.9837 39.6286 40.953C37.3791 42.9222 34.4897 44.0054 31.5 44C14.1313 44 1.97939e-05 29.8687 1.97939e-05 12.5C-0.00533954 9.51032 1.07777 6.62092 3.04706 4.37146C5.01635 2.12199 7.73714 0.666296 10.7013 0.27625C11.4508 0.184727 12.2099 0.338073 12.8651 0.713396C13.5204 1.08872 14.0366 1.66589 14.3369 2.35875L18.9569 12.6728V12.6991C19.1868 13.2294 19.2817 13.8085 19.2332 14.3845C19.1848 14.9605 18.9944 15.5155 18.6791 16C18.6397 16.0591 18.5981 16.1137 18.5544 16.1684L14 21.5672C15.6385 24.8966 19.121 28.3484 22.4941 29.9912L27.8185 25.4609C27.8707 25.417 27.9255 25.3761 27.9825 25.3384C28.4666 25.0156 29.0235 24.8185 29.603 24.765C30.1824 24.7115 30.766 24.8034 31.301 25.0322L31.3294 25.0453L41.6347 29.6631C42.3288 29.9623 42.9074 30.4781 43.2839 31.1335C43.6605 31.7888 43.8148 32.5484 43.7238 33.2987ZM40.25 32.8612C40.25 32.8612 40.2347 32.8612 40.226 32.8612L29.9447 28.2566L24.6181 32.7869C24.5665 32.8306 24.5124 32.8715 24.4563 32.9094C23.9526 33.2454 23.3704 33.445 22.7665 33.4887C22.1626 33.5324 21.5578 33.4187 21.011 33.1587C16.9138 31.1791 12.8297 27.1256 10.8478 23.0722C10.5854 22.5294 10.4676 21.928 10.506 21.3263C10.5443 20.7246 10.7374 20.1429 11.0666 19.6378C11.1037 19.5785 11.1454 19.5222 11.1913 19.4694L15.75 14.0641L11.1563 3.78281C11.1554 3.77408 11.1554 3.76529 11.1563 3.75656C9.03495 4.03328 7.08725 5.07379 5.67792 6.68325C4.26859 8.29271 3.49429 10.3607 3.50002 12.5C3.50813 19.9236 6.46072 27.0408 11.71 32.29C16.9592 37.5393 24.0764 40.4919 31.5 40.5C33.638 40.5073 35.7054 39.7357 37.3158 38.3295C38.9262 36.9232 39.9693 34.9785 40.25 32.8591V32.8612Z" fill="#676665"/>
</svg>
