<svg width="48" height="43" viewBox="0 0 48 43" fill="none" xmlns="http://www.w3.org/2000/svg">
<path d="M47.1168 7.08062C46.9844 6.76083 46.7602 6.48747 46.4724 6.29512C46.1847 6.10277 45.8464 6.00007 45.5002 6H38.8437C37.913 4.41664 36.5885 3.10103 34.9989 2.18107C33.4093 1.26111 31.6087 0.768112 29.7721 0.749998C28.4039 0.732051 27.0459 0.98794 25.778 1.50261C24.5101 2.01728 23.3579 2.78033 22.3893 3.74687C21.3924 4.72517 20.6011 5.89291 20.0621 7.18144C19.523 8.46996 19.247 9.85326 19.2502 11.25V12.5822C10.4434 10.2591 3.23993 3.095 3.16337 3.01843C2.92859 2.78157 2.63101 2.61673 2.30569 2.54333C1.98036 2.46992 1.64083 2.491 1.32709 2.60408C1.01334 2.71717 0.738443 2.91755 0.534764 3.18164C0.331084 3.44572 0.207107 3.7625 0.177431 4.09469C-0.765382 14.5487 2.27087 21.5444 4.98993 25.5716C6.31573 27.5624 7.92858 29.3463 9.77618 30.8653C6.44462 34.7 1.19899 36.7147 1.14212 36.7366C0.89518 36.829 0.672334 36.9761 0.490234 37.1669C0.308133 37.3576 0.171486 37.587 0.090501 37.8379C0.00951653 38.0889 -0.0137105 38.3549 0.0225547 38.6161C0.05882 38.8772 0.15364 39.1269 0.29993 39.3462C0.463993 39.5912 1.12024 40.4509 2.72368 41.2537C4.70556 42.2469 7.32399 42.75 10.5002 42.75C25.9593 42.75 38.8765 30.8456 40.1956 15.5287L46.7384 8.98812C46.983 8.74325 47.1496 8.43131 47.2169 8.09178C47.2843 7.75224 47.2495 7.40035 47.1168 7.08062ZM37.2731 13.5141C36.973 13.8148 36.7926 14.2145 36.7656 14.6384C35.8752 28.4394 24.3427 39.25 10.5002 39.25C8.19024 39.25 6.56274 38.9437 5.42087 38.5762C7.93868 37.2091 11.4496 34.8575 13.7071 31.4712C13.8396 31.2721 13.9299 31.048 13.9724 30.8126C14.0149 30.5772 14.0086 30.3357 13.9541 30.1028C13.8996 29.8699 13.7979 29.6507 13.6553 29.4587C13.5128 29.2666 13.3324 29.1058 13.1252 28.9862C13.0224 28.9272 3.51993 23.2244 3.50024 7.98625C7.00024 10.83 13.3987 15.2422 20.7093 16.4716C20.9599 16.5138 21.2166 16.501 21.4617 16.434C21.7068 16.367 21.9344 16.2474 22.1286 16.0836C22.3228 15.9198 22.479 15.7156 22.5864 15.4853C22.6937 15.255 22.7496 15.0041 22.7502 14.75V11.25C22.7483 10.3165 22.9331 9.392 23.2937 8.53096C23.6543 7.66992 24.1836 6.88971 24.8502 6.23625C25.4893 5.59596 26.2503 5.09029 27.0882 4.74913C27.926 4.40798 28.8238 4.23825 29.7284 4.25C32.4977 4.285 35.0856 5.97375 36.1684 8.45218C36.3049 8.76379 36.5292 9.02885 36.814 9.21494C37.0988 9.40103 37.4316 9.50009 37.7718 9.5H41.2718L37.2731 13.5141Z" fill="#676665"/>
</svg>
